<svg t="1783671436015" class="icon" viewBox="0 0 1024 1024" version="1.1" xmlns="http://www.w3.org/2000/svg" p-id="39336" width="64" height="64"><path d="M0 0m398.222222 0l227.555556 0q398.222222 0 398.222222 398.222222l0 227.555556q0 398.222222-398.222222 398.222222l-227.555556 0q-398.222222 0-398.222222-398.222222l0-227.555556q0-398.222222 398.222222-398.222222Z" fill="#F14A72" p-id="39337"></path><path d="M313.059556 323.612444v454.656a30.805333 30.805333 0 0 1-30.833778 30.833778H234.666667a30.833778 30.833778 0 0 1-30.833778-30.833778V323.612444c0-4.579556 2.56-8.533333 5.688889-8.533333h97.820444c3.157333 0.085333 5.717333 3.953778 5.717334 8.533333z" fill="#FFFFFF" p-id="39338"></path><path d="M311.921778 287.061333L267.690667 220.416a10.894222 10.894222 0 0 0-18.716445 0l-44.231111 66.645333a5.688889 5.688889 0 0 0 3.953778 9.130667h99.271111a5.688889 5.688889 0 0 0 3.953778-9.130667z" fill="#FFFFFF" p-id="39339"></path><path d="M717.539556 203.093333h-262.798223a102.684444 102.684444 0 0 0-102.684444 102.684445v412.728889a102.4 102.4 0 0 0 102.4 102.4h164.977778a27.676444 27.676444 0 0 0 19.569777-8.135111l172.913778-172.885334a28.672 28.672 0 0 0 8.533334-20.309333V305.777778a102.684444 102.684444 0 0 0-102.912-102.684445z m-175.729778 107.491556h169.955555a28.444444 28.444444 0 0 1 0 56.888889h-169.955555a28.444444 28.444444 0 0 1 0-56.888889z m-81.265778 175.303111a28.444444 28.444444 0 1 1 28.444444-28.444444 28.444444 28.444444 0 0 1-28.472888 28.444444z m0-118.414222a28.444444 28.444444 0 1 1 28.444444-28.444445 28.444444 28.444444 0 0 1-28.472888 28.444445z m52.821333 89.969778a28.444444 28.444444 0 0 1 28.444445-28.444445h169.955555a28.444444 28.444444 0 0 1 0 56.888889h-169.955555a28.444444 28.444444 0 0 1-28.444445-28.444444zM798.606222 620.088889l-182.328889 182.044444a8.533333 8.533333 0 0 1-5.688889 2.275556 6.712889 6.712889 0 0 1-4.835555-1.706667 19.342222 19.342222 0 0 1-2.844445-3.982222 60.501333 60.501333 0 0 1-8.533333-31.288889v-106.951111a62.264889 62.264889 0 0 1 62.264889-62.293333h106.951111a61.696 61.696 0 0 1 31.573333 8.533333 20.309333 20.309333 0 0 1 3.982223 2.844444 7.736889 7.736889 0 0 1 1.735111 4.835556 8.533333 8.533333 0 0 1-2.275556 5.688889z" fill="#FFFFFF" p-id="39340"></path></svg>