<svg t="1783671278644" class="icon" viewBox="0 0 1024 1024" version="1.1" xmlns="http://www.w3.org/2000/svg" p-id="32354" width="64" height="64"><path d="M0 0m398.222222 0l227.555556 0q398.222222 0 398.222222 398.222222l0 227.555556q0 398.222222-398.222222 398.222222l-227.555556 0q-398.222222 0-398.222222-398.222222l0-227.555556q0-398.222222 398.222222-398.222222Z" fill="#FFD500" p-id="32355"></path><path d="M682.638222 824.888889h-341.333333a113.777778 113.777778 0 0 1-113.777778-113.777778V312.888889a113.777778 113.777778 0 0 1 113.777778-113.777778h341.333333a113.777778 113.777778 0 0 1 113.777778 113.777778v398.222222a113.777778 113.777778 0 0 1-113.777778 113.777778z m-312.888889-199.111111a28.444444 28.444444 0 0 0-28.444444 28.444444 28.444444 28.444444 0 0 0 28.444444 28.444445h113.777778a28.444444 28.444444 0 0 0 28.444445-28.444445 28.444444 28.444444 0 0 0-28.444445-28.444444z m0-142.222222a28.444444 28.444444 0 0 0-28.444444 28.444444 28.444444 28.444444 0 0 0 28.444444 28.444444h227.555556a28.444444 28.444444 0 0 0 28.444444-28.444444 28.444444 28.444444 0 0 0-28.444444-28.444444z m0-142.222223a28.444444 28.444444 0 0 0-28.444444 28.444445 28.444444 28.444444 0 0 0 28.444444 28.444444h284.444445a28.444444 28.444444 0 0 0 28.444444-28.444444 28.444444 28.444444 0 0 0-28.444444-28.444445z" fill="#FFFFFF" p-id="32356"></path></svg>