<svg t="1783671341905" class="icon" viewBox="0 0 1024 1024" version="1.1" xmlns="http://www.w3.org/2000/svg" p-id="33609" width="64" height="64"><path d="M0 0m398.222222 0l227.555556 0q398.222222 0 398.222222 398.222222l0 227.555556q0 398.222222-398.222222 398.222222l-227.555556 0q-398.222222 0-398.222222-398.222222l0-227.555556q0-398.222222 398.222222-398.222222Z" fill="#00DCA8" p-id="33610"></path><path d="M693.333333 824.888889H330.581333a113.777778 113.777778 0 0 1-113.777777-113.777778V312.888889a113.777778 113.777778 0 0 1 113.777777-113.777778h362.752a113.777778 113.777778 0 0 1 113.777778 113.777778v398.222222a113.777778 113.777778 0 0 1-113.777778 113.777778z m-149.959111-277.902222c-1.792 2.844444-3.783111 5.916444-6.030222 9.244444-9.301333 14.222222-18.460444 28.444444-28.444444 42.126222a150.755556 150.755556 0 0 0 110.165333 55.808h25.6v55.722667l65.194667-85.475556-65.251556-83.285333v48.156445h-25.6a104.789333 104.789333 0 0 1-75.662222-42.268445z m-229.262222 39.822222v64.910222h40.704c70.741333 0 111.416889-62.577778 147.285333-117.731555l3.726223-5.688889c36.664889-56.32 69.916444-93.866667 113.180444-93.866667h25.6v48.526222l65.251556-85.333333-65.251556-83.541333v55.409777h-25.6c-70.001778 0-117.048889 57.429333-157.44 119.466667l-2.844444 4.295111-2.190223 3.384889c-31.288889 48.355556-58.396444 90.140444-101.774222 90.140444z m17.066667-151.864889c6.997333 0 14.990222 0 23.751111 0.256a85.703111 85.703111 0 0 1 65.763555 36.295111l9.500445-14.392889 2.218666-3.413333c7.111111-10.922667 14.478222-22.215111 22.556445-33.621333a131.413333 131.413333 0 0 0-100.039111-49.720889h-40.704v64.853333h0.739555c1.763556 0 6.741333-0.256 16.071111-0.256z" fill="#FFFFFF" p-id="33611"></path></svg>