<svg t="1783670117565" class="icon" viewBox="0 0 1024 1024" version="1.1" xmlns="http://www.w3.org/2000/svg" p-id="22866" width="200" height="200"><path d="M965.688889 576a228.295111 228.295111 0 0 1-229.717333 229.660444h-31.971556l-5.688889-5.688888v-63.943112l5.688889-5.688888h32.028444a152.746667 152.746667 0 0 0 154.282667-154.339556 152.746667 152.746667 0 0 0-154.339555-154.339556l-5.688889-5.688888A216.917333 216.917333 0 0 0 512 197.688889a216.917333 216.917333 0 0 0-218.339556 218.282667l-5.688888 5.688888a152.746667 152.746667 0 0 0-154.282667 154.339556 152.746667 152.746667 0 0 0 154.282667 154.339556h32.028444l5.688889 5.688888v63.943112l-5.688889 5.688888h-32.028444a228.295111 228.295111 0 0 1-229.660445-229.660444c0-102.968889 69.688889-194.503111 167.253333-222.151111A291.271111 291.271111 0 0 1 512 122.311111a291.271111 291.271111 0 0 1 286.492444 231.537778c97.507556 27.648 167.196444 119.239111 167.196445 222.151111z" fill="#cdcdcd" p-id="22867"></path><path d="M540.785778 489.585778c-12.8-9.557333-25.6-12.8-38.4-6.371556-3.185778 0-6.371556 3.185778-9.557334 6.371556l-96.028444 92.842666a30.947556 30.947556 0 0 0 0 44.771556 34.816 34.816 0 0 0 48.014222 0l38.4-35.214222v271.985778c0 19.228444 15.985778 32.028444 31.971556 32.028444a32.085333 32.085333 0 0 0 32.028444-32.028444v-271.928889l38.4 35.157333a34.816 34.816 0 0 0 47.957334 0 30.947556 30.947556 0 0 0 0-44.771556l-92.728889-92.842666z" fill="#cdcdcd" p-id="22868"></path></svg>